<svg width="56" height="56" viewBox="0 0 56 56" fill="none"
    xmlns="http://www.w3.org/2000/svg">
    <g filter="url(#filter0_d)">
        <path d="M28.02 47.96C20.2864 47.96 12.5329 47.96 4.79933 47.98C4.19983 47.98 4 47.8599 4 47.2193C4.01998 31.7264 4.01998 16.2135 4 0.7206C4 0.100083 4.19983 0 4.75937 0C20.2465 0.0200167 35.7136 0.0200167 51.2007 0C51.9001 0 52 0.200166 52 0.8407C51.98 16.2936 51.98 31.7465 52 47.1993C52 47.8999 51.8002 48 51.1607 48C43.4471 47.9399 35.7336 47.96 28.02 47.96Z" fill="#776763"/>
        <path d="M37.3322 25.9416C37.4122 26.7022 36.8127 26.9625 36.3131 27.1226C35.6336 27.3428 35.0142 27.8832 34.1948 27.6631C33.955 27.603 33.7352 27.8832 33.7752 28.1635C33.8152 28.4037 33.7552 28.6038 33.7352 28.824C33.3555 28.864 33.1957 28.5238 32.9559 28.4437C33.6353 29.0642 34.1349 29.8649 34.6145 30.7056C35.194 31.7064 35.8734 32.6472 37.0525 33.1276C37.0924 32.8274 36.7927 32.6872 36.8526 32.447C37.3122 32.5071 38.0716 33.2477 38.0716 33.648C38.0716 33.7882 38.0316 33.9683 37.9117 33.9483C37.3122 33.8282 36.7127 34.1885 36.1332 33.9683C34.6744 33.4279 33.1757 33.1076 31.7369 32.4671C29.7386 31.5863 27.8801 30.5054 25.9817 29.4646C23.9634 28.3636 21.985 27.2227 19.7669 26.5421C19.1873 26.362 18.5479 26.342 17.9484 26.2619C17.8085 26.2419 17.6286 26.2419 17.5687 26.1017C17.4888 25.9216 17.6486 25.8215 17.7685 25.7414C18.2881 25.4212 18.5878 24.8207 19.2873 24.7406C19.567 24.7006 19.647 24.2402 19.7269 24C20.0067 23.1393 20.6062 22.4787 21.1457 21.8182C21.6853 21.1576 22.0849 20.5171 21.945 19.6564C21.8651 19.0959 22.2848 18.3553 21.7852 17.955C21.0258 17.3545 20.826 16.4337 20.5862 15.6931C20.2065 14.5321 19.1674 13.4512 19.6669 12.0901C19.9267 11.3695 20.1266 10.7289 20.0666 9.90825C20.0266 9.2477 20.5462 8.5271 20.9459 7.90659C21.0458 7.74645 20.846 7.206 21.3855 7.36614C21.4654 7.46622 21.5654 7.54629 21.6053 7.68641C21.6253 7.78649 21.6253 7.88657 21.6053 7.98666C21.5654 8.14679 21.5254 8.30692 21.4255 8.44704C21.4055 8.48707 21.3655 8.5271 21.3455 8.56714C21.2856 8.70725 21.0458 8.78732 21.2256 8.98749C21.2456 9.00751 21.4455 9.22769 21.3455 8.92744C21.3256 8.84737 21.3855 8.74729 21.4255 8.64721C21.4455 8.58716 21.4854 8.5271 21.5454 8.46705C21.7652 8.34695 22.025 8.36697 22.2648 8.34696C22.9642 8.28691 23.0042 8.32694 22.7444 8.98749C22.5246 9.56797 23.1041 9.72811 23.2839 10.0884C23.5637 10.5888 24.0833 10.1685 24.443 10.4087C24.6828 10.5688 24.7227 10.809 24.7427 11.0692C24.2032 11.3895 24.3031 11.7698 24.6228 12.1902C24.7427 12.3503 24.8227 12.5304 24.7827 12.7306C24.7627 12.7907 24.7427 12.8707 24.7027 12.9308C24.383 13.0309 24.0233 13.0909 24.1432 13.5713C24.0033 13.6714 23.8435 13.7314 23.6636 13.7515C23.6037 13.7515 23.5237 13.7515 23.4638 13.7114C23.224 13.6113 23.164 13.2911 22.9042 13.251C22.7444 13.211 22.5845 13.231 22.4246 13.251C22.3447 13.251 22.2848 13.231 22.2048 13.231C22.045 13.231 21.985 12.8507 21.8052 13.0709C21.6053 13.3111 21.8651 13.3912 22.025 13.4912C22.3247 13.6914 22.5046 13.9316 22.1849 14.2719C22.1249 14.3119 22.0649 14.3319 22.005 14.352C21.9051 14.372 21.8052 14.352 21.7252 14.3119C21.6853 14.3119 21.6653 14.2919 21.6253 14.2519C21.6053 14.352 21.7052 14.2919 21.7252 14.3319C21.9051 14.432 22.0849 14.4721 22.2848 14.4721C22.5246 14.5121 22.8043 14.452 22.9242 14.7723C22.7444 15.0125 22.4846 14.8324 22.3447 14.8724C22.1848 14.8524 22.3048 15.0325 22.2848 14.9324C22.2648 14.9124 22.3047 14.8924 22.3447 14.8924C22.6644 14.9324 22.6644 14.9324 22.6445 15.2127C22.5645 15.3328 22.4446 15.4529 22.6045 15.573C22.6644 15.613 22.7444 15.573 22.8043 15.573C22.7444 15.4729 22.5645 15.4729 22.5445 15.3128C22.6644 15.1126 22.9242 15.1126 23.0441 14.9124C23.144 14.7923 23.184 14.6522 23.244 14.5121C23.2839 14.432 23.3439 14.352 23.4238 14.2919C23.4638 14.2519 23.5237 14.2118 23.5637 14.1718C23.6836 14.0717 23.8235 13.9516 24.0033 13.9917C24.2431 14.0717 24.3031 14.5721 24.6828 14.2719C24.8826 14.2919 25.0025 14.392 25.0824 14.5721C25.1624 14.8123 25.0824 15.0525 25.0824 15.2927C25.0824 15.3528 25.0824 15.4329 25.0625 15.4929C24.9825 15.9533 25.1024 16.3536 25.4022 16.6939C26.3414 17.4545 27.2406 18.2752 28.5595 18.2352C28.6195 18.2752 28.6595 18.3353 28.6994 18.3953C28.7794 18.5755 28.8593 18.7756 28.7594 18.9558C28.6595 19.1159 28.4796 19.256 28.6794 19.4762C28.8793 19.6764 29.1191 19.6964 29.3589 19.6364C29.6786 19.5363 29.9184 19.3361 30.1982 19.176C31.0974 18.6355 31.637 18.8157 32.0566 19.7965C32.0366 19.8966 31.9767 20.0167 31.8768 19.9967C30.8376 19.7164 30.0583 20.437 29.159 20.7173C29.0991 20.7573 28.9592 20.7773 28.9592 20.7973C28.9792 20.8974 29.0991 20.8574 29.159 20.9174C29.6187 21.1776 30.1382 21.0776 30.6978 21.1176C30.3381 20.8574 30.2981 20.5972 30.5978 20.357C30.8976 20.1168 31.4172 20.2369 31.657 20.5771C31.9567 21.0375 31.7769 21.4178 31.0375 21.9383C31.3572 22.1384 31.7169 22.2585 32.0966 22.3186C32.3963 22.3586 32.6961 22.4587 32.6961 22.859C32.6761 22.9591 32.5762 22.9992 32.5362 23.0992C32.6162 23.0792 32.6561 23.0392 32.7161 22.9791C32.9159 22.7189 32.836 22.3987 32.9759 22.1384C33.0358 22.0384 33.1157 21.9783 33.2356 21.9783C33.8751 22.4387 33.8551 23.1793 33.2157 23.5997C32.9759 23.7398 32.7161 23.8198 32.4363 23.8799C32.2165 23.9199 32.0566 24.06 32.0766 24.2802C32.1166 24.5404 32.3364 24.5404 32.5362 24.5404C32.836 24.5204 33.1157 24.4203 33.4155 24.4404C33.7152 24.4604 34.055 24.4804 34.1349 24.8407C34.2148 25.181 33.9351 25.3211 33.6753 25.4412C33.4555 25.5413 33.2556 25.6814 32.9159 25.7615C33.3156 25.9416 33.5154 26.1818 33.4555 26.5821C33.4355 26.6422 33.4155 26.7223 33.3755 26.7823C33.4155 26.8023 33.4355 26.7823 33.4754 26.7223C33.5354 26.6022 33.5554 26.4821 33.5154 26.362C33.4754 26.1418 33.2556 25.8415 33.4754 25.7414C33.7552 25.6213 33.8951 25.3011 34.2148 25.2811C34.5346 25.261 34.8543 25.3011 34.8343 25.7214C34.8143 26.0017 34.8343 26.2218 35.1341 26.3219C35.4538 26.8023 35.8934 26.5421 36.2931 26.4621C36.413 26.442 36.4729 26.3219 36.5529 26.2419C36.6528 26.1218 36.7327 26.0017 36.8127 25.8616C36.8526 25.8015 36.9126 25.7815 36.9725 25.7615C37.1124 25.7414 37.2123 25.8015 37.3122 25.9016C37.2923 25.8816 37.3122 25.9216 37.3322 25.9416Z" fill="#201A16"/>
        <path d="M23.1041 10.1885C22.8443 10.0083 22.7844 9.608 22.3647 9.62802C22.1249 9.62802 22.2248 9.42785 22.3247 9.30775C22.5246 9.04754 22.4846 8.66722 22.8643 8.46705C22.3647 8.54712 21.9051 8.5271 21.4655 8.54712C21.4255 8.50709 21.4055 8.46705 21.4255 8.42702C21.4255 8.38699 21.4255 8.36697 21.4455 8.36697C21.5254 8.22685 21.6453 8.10675 21.7852 8.02669C21.985 7.8065 22.3847 7.76647 22.4047 7.34612C22.3647 7.10592 22.1849 7.16597 22.025 7.14595C21.8651 7.10592 21.7252 6.8457 21.9451 6.80567C22.5246 6.70559 22.4646 5.96497 23.0042 5.86489C24.1033 5.0442 25.1224 4.18349 26.6611 4.14345C27.6803 4.12344 28.6595 4.18349 29.6786 4.24354C29.9584 4.26355 30.1582 4.3236 30.2981 4.58382C30.3381 4.6839 30.358 4.78399 30.378 4.88407C30.418 5.02419 30.3381 5.20434 30.4979 5.32444C30.6778 5.22435 30.5179 5.00417 30.6778 4.90408C30.7377 4.88407 30.8177 4.86405 30.8976 4.86405C31.2773 4.9241 31.657 4.90408 31.9967 5.10425C32.0766 5.1643 32.1765 5.22435 32.2565 5.2844C32.5362 5.5246 32.3564 5.68474 32.1965 5.86489C32.1366 5.92494 32.0766 5.98499 32.0366 6.06505C32.0366 6.2452 32.1965 6.3653 32.1965 6.54545C32.1765 6.58549 32.1765 6.64554 32.2165 6.68557C32.2565 6.66555 32.2964 6.62552 32.3364 6.58549C33.1757 6.08507 33.6353 6.18515 34.5346 7.02585C34.9742 7.8065 34.8743 8.08674 34.1549 8.30692C33.9351 8.0467 34.055 7.60634 33.6753 7.4462C33.6353 7.4462 33.5954 7.42619 33.5754 7.38615C33.5554 7.48624 33.6753 7.40617 33.6953 7.46622C33.8551 7.64637 34.0749 7.78649 33.995 8.06672C33.9351 8.26689 34.055 8.32694 34.2148 8.34695C34.6145 8.56714 34.7144 9.00751 34.9542 9.34779C35.0741 9.66806 34.9942 10.0284 35.1341 10.3486C35.2739 10.6689 35.3139 11.0092 35.4938 11.3294C35.6536 11.6097 35.6536 11.97 35.4138 12.2302C35.174 12.5104 34.8743 12.3703 34.5745 12.2902C34.055 12.1501 33.5554 11.8299 32.9958 12.1501C32.776 12.1902 32.6162 12.3303 32.3164 12.5304C32.5962 12.3703 32.7361 12.2102 32.9359 12.1902C33.0958 12.1301 33.2356 12.01 33.4355 12.05C33.6353 12.0701 33.7352 12.2102 33.7952 12.3903C33.8351 12.5705 33.7552 12.6706 33.6153 12.7506C33.3755 12.8907 33.1357 13.0108 32.9159 13.171C32.5162 13.3912 32.1166 13.4712 31.7569 13.1309C31.3972 12.7907 31.4771 12.3503 31.6769 11.97C31.8768 11.5696 31.8368 11.0892 32.0766 10.7089C32.0966 10.6689 32.1565 10.6289 32.1366 10.6088C32.0966 10.5088 31.9967 10.5888 31.9367 10.5888C31.597 10.4087 31.3372 10.6889 31.0375 10.7289C30.6978 10.6489 30.6978 11.0492 30.4779 11.1293C30.2581 11.4295 30.0383 11.5496 29.8585 11.0892C29.7386 10.749 29.4788 10.4487 29.5187 10.0484C29.5387 9.64804 29.2989 10.0484 29.199 9.98832C29.0791 9.98832 28.9992 9.92827 28.9392 9.82819C28.9192 9.74812 28.9192 9.68807 28.9392 9.608C29.0591 9.28774 29.4188 9.18765 29.5787 8.92744C29.6786 8.7673 30.0583 8.54712 29.4788 8.50709C29.3189 8.48707 29.1391 8.34695 28.9792 8.14679C29.159 8.48707 29.6786 8.5271 29.4988 9.0075C29.3189 9.14762 29.0192 9.16764 28.9392 9.42785C28.8993 9.46789 28.8593 9.50792 28.7993 9.52794C28.5995 9.50792 28.6395 9.7281 28.5396 9.80817C28.2998 9.9683 28.1799 10.2485 27.98 10.4487C27.7602 10.6088 27.5004 10.6689 27.3605 10.9691C27.2406 11.2294 26.9609 11.3294 26.7211 11.2294C26.4013 11.0892 26.3414 11.3695 26.1815 11.4696C26.1615 11.5096 26.0816 11.3895 26.0616 11.4896C26.0616 11.5897 26.0217 11.4495 26.1216 11.4896C26.1815 11.5096 26.2015 11.5496 26.2015 11.6097C26.1615 11.8299 26.3814 11.99 26.3614 12.2102C26.0017 12.8907 25.2023 13.1309 24.6628 12.7106C24.5629 12.5104 24.6028 12.2302 24.3231 12.1101C23.6436 11.8499 24.463 11.3895 24.2032 11.0692C24.363 10.9491 24.403 11.2494 24.5429 11.1893C24.5629 11.1893 24.5829 11.1693 24.6028 11.1693C24.6228 11.1493 24.6028 11.1293 24.6028 11.0892C24.6428 10.4287 24.3231 9.9683 23.8635 9.50792C23.7835 9.76814 23.5837 9.92827 23.4438 10.1084C23.3039 10.1685 23.224 10.2285 23.1041 10.1885Z" fill="#FEFEFE"/>
        <path d="M23.8834 42.7756C24.8826 41.3945 25.8618 40.0534 26.841 38.7123C26.9009 38.7323 26.9609 38.7523 27.0208 38.7723C27.0208 40.4937 27.0208 42.2152 27.0208 43.9566C26.781 43.9566 26.4213 43.9566 26.0616 43.9566C26.3813 42.8557 26.1216 41.7348 26.0416 40.5338C25.2623 41.6747 24.4629 42.8157 23.6436 44.0167C22.8843 42.8557 22.1649 41.7548 21.4455 40.6539C21.3855 41.7748 21.1657 42.8757 21.4854 43.9766C21.2256 44.0567 20.9659 44.0767 20.7261 43.9766C20.9659 42.2152 20.766 40.4537 20.8859 38.5321C21.945 39.9933 22.9242 41.3745 23.8834 42.7756Z" fill="#FCFCFC"/>
        <path d="M31.597 38.372C33.3156 38.392 34.5545 39.613 34.5345 41.2544C34.5146 42.8957 33.1757 44.1368 31.4571 44.1168C29.6786 44.0967 28.4596 42.8957 28.4796 41.1943C28.4996 39.553 29.8385 38.352 31.597 38.372Z" fill="#FCFBFC"/>
        <path d="M36.1132 13.6514C36.5129 14.412 36.9126 15.1726 37.3122 15.9333C37.552 16.1735 37.552 16.4537 37.3122 16.6539C37.0525 16.8741 36.8127 16.6939 36.5928 16.5138C36.5129 16.4537 36.4729 16.3536 36.393 16.2936C36.1932 16.1134 36.2132 15.633 35.7735 15.8132C35.3339 15.9733 34.8943 16.1334 34.8343 16.7339C34.7744 17.4145 34.6345 17.4545 33.975 17.1743C33.6353 16.6939 33.2356 16.3336 32.6761 16.1334C32.3963 16.0334 32.1565 15.8732 31.9967 15.593C31.8768 15.2527 31.8768 14.8724 31.7369 14.5321C31.7369 14.452 31.7769 14.392 31.8368 14.3319C32.0566 14.2118 32.2764 14.2118 32.5162 14.2319C32.796 14.2919 33.0758 14.372 33.3555 14.352C33.5154 14.2319 33.9151 14.5521 33.8551 14.0717C33.8751 13.9716 33.9151 13.8916 33.955 13.7915C34.055 13.5713 33.995 13.151 34.3547 13.231C34.6944 13.2911 34.6944 13.6514 34.6545 13.9716C34.6545 14.0117 34.6345 14.0717 34.6345 14.1118C34.6145 14.1918 34.5945 14.2519 34.5346 14.3119C34.5745 14.3119 34.6145 14.2919 34.6145 14.2319C34.7544 13.9116 34.8543 13.5913 35.2939 13.8515C35.3139 13.8716 35.3339 13.9116 35.3539 13.9516C35.3938 13.8515 35.2939 13.8115 35.2739 13.7515C35.0741 13.3912 34.6944 12.9308 35.234 12.6706C35.6736 12.4504 35.8535 13.0108 36.0733 13.3311C36.1132 13.3912 36.1132 13.5113 36.1132 13.6514Z" fill="#FDFDFD"/>
        <path d="M41.0891 38.7123C40.7494 39.653 40.9692 40.6339 40.9492 41.5947C40.9292 43.4362 40.1699 44.1968 38.3514 44.1168C36.9126 44.0567 36.1732 43.2961 36.1332 41.8549C36.1132 41.1143 36.1332 40.3536 36.1332 39.613C36.1332 39.2327 36.1532 38.8724 35.8934 38.5321C36.3331 38.5321 36.7327 38.5321 37.0924 38.5321C36.7927 39.9133 36.7927 41.2744 37.0525 42.6155C37.1923 43.3761 37.7719 43.6964 38.6911 43.7164C39.5704 43.7364 40.1699 43.4362 40.3097 42.7156C40.5695 41.3945 40.5895 40.0534 40.3097 38.7323C40.5695 38.3319 40.8293 38.3319 41.0891 38.7123Z" fill="#FCFCFC"/>
        <path d="M19.8868 43.9366C19.1873 44.1968 18.7477 43.9566 18.6078 43.216C18.5079 42.5955 18.1282 42.4153 17.5487 42.4954C17.3489 42.5154 17.149 42.5154 16.9492 42.4954C16.1699 42.3753 15.6703 42.6155 15.5504 43.4562C15.4704 44.0167 15.0908 44.0967 14.5712 43.9366C15.6703 42.1151 16.3697 40.1334 17.209 38.0717C18.1682 40.0534 18.8676 42.055 19.8868 43.9366Z" fill="#FBFBFB"/>
        <path d="M45.7252 39.593C45.3855 39.0726 44.9459 38.7723 44.3064 38.7923C43.9667 38.7923 43.647 38.8724 43.5071 39.2327C43.3672 39.593 43.4271 39.9533 43.7269 40.1935C44.0666 40.4737 44.4663 40.7139 44.826 40.9741C45.1457 41.2143 45.4854 41.4345 45.7852 41.6947C46.2248 42.0751 46.3447 42.5955 46.1649 43.1159C45.985 43.6364 45.6053 43.9967 45.0458 44.0967C44.6261 44.1768 44.2065 44.1568 43.7868 44.1168C42.8276 43.9967 42.7477 43.8766 42.8476 42.8157C43.3072 43.3761 43.7669 43.8565 44.5262 43.8165C44.9459 43.7965 45.3056 43.7164 45.4854 43.256C45.6453 42.8157 45.5054 42.4554 45.1657 42.1952C44.6261 41.7748 44.0666 41.4145 43.5271 41.0142C42.9675 40.6138 42.5679 40.1134 42.8276 39.3728C43.0874 38.6322 43.7069 38.392 44.4263 38.412C44.9459 38.412 45.4654 38.4921 45.8851 38.8724C45.9251 39.1126 46.1249 39.4128 45.7252 39.593Z" fill="#FBFAFA"/>
        <path d="M34.055 17.0542C34.3547 17.2744 34.7344 17.4946 34.6944 16.854C34.6345 16.1935 34.8743 15.8532 35.4938 15.7531C35.7735 15.7131 35.8734 15.4529 36.0733 15.3328C36.2531 15.653 36.393 15.9733 36.5928 16.2535C36.7327 16.4737 36.9525 16.754 37.2523 16.5938C37.552 16.4537 37.3522 16.1535 37.3522 15.9133C37.7719 16.0133 37.7519 16.0133 37.8718 16.6739C37.9317 17.0342 37.7119 17.1743 37.4921 17.1943C37.0125 17.2344 37.0325 17.5146 37.1524 17.8148C37.2523 18.055 37.2123 18.1551 37.0525 18.3553C36.6928 18.7756 37.1324 19.3161 36.9326 19.7965C37.0525 19.9166 37.0525 20.0367 37.0125 20.1968C36.5529 20.437 36.393 19.9366 36.0733 19.8365C35.9334 19.7965 35.7735 19.9166 35.6536 19.7565C35.6137 19.6964 35.6137 19.6364 35.5937 19.5763C35.5537 19.256 35.7735 19.0759 35.9534 18.8957C35.9334 18.8957 35.9334 18.8757 35.9134 18.8757C35.5337 19.0759 35.6536 19.5363 35.4538 19.8365C34.8143 19.7965 35.0541 19.2961 34.9942 18.9558C34.9542 18.6155 34.9542 18.2952 35.3739 18.1751C35.6936 18.0951 35.9734 17.955 36.2931 17.8549C35.4938 17.4145 35.0741 17.5546 34.6744 18.3553C34.6145 18.4954 34.5745 18.6355 34.3947 18.6555C33.8551 18.1751 34.035 17.5947 34.055 17.0542Z" fill="#221E1B"/>
        <path d="M35.254 13.9316C34.9542 13.7915 34.9542 13.7915 34.6345 14.392C34.4946 14.412 34.4147 14.392 34.4746 14.2118C34.4746 13.8716 34.6145 13.5113 34.2348 13.211C34.2748 13.6314 34.0749 13.9316 33.8951 14.2519C33.7752 14.2919 33.6953 14.2118 33.6553 14.1318C33.5554 13.8916 33.5753 13.6113 33.4355 13.3912C33.4155 13.3111 33.4155 13.231 33.4754 13.171C33.4355 13.0108 33.3755 13.191 33.3355 13.171C33.2156 13.251 33.1157 13.2911 32.9759 13.251C32.8759 13.211 32.816 13.1309 32.776 13.0309C32.9359 12.9108 33.1157 12.8307 33.2356 12.6906C33.3555 12.5705 33.6952 12.7306 33.5953 12.3903C33.5154 12.0701 33.2956 12.2502 33.1157 12.2502C33.0158 12.2502 32.9159 12.2702 32.836 12.2902C32.776 12.2702 32.756 12.2302 32.776 12.1902C32.796 12.1501 32.816 12.1301 32.836 12.1301C33.4355 11.6897 34.055 11.8699 34.6545 12.1301C34.8543 12.2102 35.0341 12.3903 35.254 12.1902C35.4738 11.99 35.3938 11.7298 35.3139 11.4896C35.194 11.1293 34.8942 10.809 34.9142 10.3887C34.7544 10.0484 34.9942 9.62802 34.7544 9.28774C34.3347 9.14762 34.3747 8.62719 34.035 8.42702C33.975 8.34695 33.975 8.24687 34.055 8.1668C34.8943 7.96664 34.4746 7.48624 34.3147 7.06589C34.2348 6.94579 34.2348 6.8457 34.3147 6.74562C34.8343 6.86572 34.9142 7.26605 34.9142 7.70642C34.9142 8.96747 35.194 10.1485 35.6936 11.2894C35.8135 11.5696 35.7136 11.8499 35.7535 12.1301C35.8135 12.5304 35.9734 12.6505 36.2731 12.8507C36.7327 13.151 36.2731 13.4112 36.0932 13.6514C35.9334 13.4112 35.7735 13.171 35.5937 12.9508C35.4937 12.8107 35.3938 12.6105 35.194 12.7106C34.9742 12.8307 35.0541 13.0509 35.1341 13.231C35.214 13.4112 35.2939 13.5913 35.3739 13.7715C35.4538 13.9316 35.3739 13.9516 35.254 13.9316Z" fill="#231E1B"/>
        <path d="M11.6536 43.9766C11.234 43.9766 10.8943 43.9766 10.5945 43.9766C10.7144 42.1551 10.7544 40.3536 10.5545 38.4721C11.5537 38.4721 12.5928 38.4921 13.632 38.4721C14.1715 38.452 13.9717 38.8324 14.0716 39.1726C13.3322 38.9124 12.6328 38.8724 11.9534 38.8724C11.5937 38.8724 11.3539 38.9525 11.4138 39.3728C11.4738 39.8732 11.154 40.6739 11.5737 40.834C12.1732 41.0742 12.9326 41.0742 13.612 40.794C13.6719 40.774 13.7319 40.7139 13.8518 40.6539C13.8518 40.9341 13.8518 41.1943 13.8518 41.5146C13.1923 41.1943 12.5129 41.2944 11.8335 41.2744C11.6336 41.2744 11.3938 41.2744 11.4138 41.5546C11.4938 42.3353 11.2739 43.1359 11.6536 43.9766Z" fill="#FAFAFA"/>
        <path d="M31.9367 5.06422C31.537 5.06422 31.0974 5.22435 30.7177 4.94412C30.5179 4.82402 30.2181 4.9241 30.1382 4.62385C30.0583 4.42368 29.8784 4.42368 29.6986 4.40367C28.9192 4.34362 28.1199 4.14345 27.3605 4.26355C26.3014 4.42368 25.1024 4.2035 24.2231 5.1643C23.9034 5.50458 23.3639 5.62468 22.9242 5.86488C22.6245 5.60467 22.9242 5.46455 23.0641 5.34445C24.383 4.18348 25.9617 3.50292 27.6803 3.7231C28.7993 3.86322 30.0783 3.74312 31.0575 4.58382C31.2173 4.72393 31.4771 4.78398 31.7569 4.74395C32.0766 4.6839 32.0166 4.90408 31.9367 5.06422Z" fill="#221D1B"/>
        <path d="M36.8326 32.427C36.9925 32.7273 37.3722 32.8674 37.4521 33.2477C37.0125 33.4279 36.6728 33.2077 36.353 32.9875C35.5937 32.447 34.9542 31.7465 34.5345 30.9258C34.015 29.9249 33.3555 29.0842 32.5762 28.3036C32.4763 28.2035 32.3364 28.1234 32.3963 27.8632C32.9359 28.0434 33.2956 28.4637 33.7152 28.804C34.1549 29.3645 34.5945 29.9249 35.0341 30.4854C35.7136 31.0859 36.2731 31.7665 36.8326 32.427Z" fill="#F9F9F8"/>
        <path d="M14.1515 33.4679C14.3913 33.4679 14.6112 33.4679 14.851 33.4679C14.811 33.9683 14.4313 34.6689 14.9109 34.8891C15.4505 35.1293 16.2498 35.1293 16.8093 34.8891C17.189 34.7289 16.9692 34.0083 16.8693 33.5079C17.0691 33.3878 17.3089 33.4279 17.5687 33.4879C17.3689 34.5088 17.4488 35.5096 17.4888 36.5104C17.4888 36.7106 17.6686 36.9508 17.249 36.9508C16.8893 36.9508 16.9492 36.7907 16.9692 36.5505C17.0092 35.2694 17.0092 35.2694 15.7702 35.2694C14.6511 35.2694 14.6711 35.2694 14.751 36.4504C14.771 36.6305 15.0508 36.9508 14.5512 36.9708C14.0117 36.9908 14.2914 36.6505 14.2714 36.4304C14.2115 35.4495 14.3514 34.4887 14.1515 33.4679Z" fill="#FBFBFB"/>
        <path d="M9.81516 34.1485C9.65529 33.628 9.71524 33.3678 10.3147 33.4078C11.1141 33.4479 11.9134 33.4479 12.7127 33.4078C13.2723 33.3678 13.3722 33.588 13.2323 34.0684C13.0325 34.1685 12.9925 33.9483 12.8926 33.8682C12.5928 33.6681 12.2331 33.548 11.9134 33.7081C11.5937 33.8482 11.7735 34.2085 11.7735 34.4487C11.7935 35.2494 11.6536 36.0701 11.8934 36.8707C11.3339 37.0709 11.174 36.9308 11.2739 36.3303C11.3739 35.6897 11.2939 35.0292 11.2939 34.3887C11.2939 33.608 10.9342 33.4078 10.2348 33.8082C10.055 33.9083 9.95504 34.0284 9.81516 34.1485Z" fill="#F7F7F7"/>
        <path d="M19.5071 35.2494C19.4871 36.8707 19.7269 37.0509 21.2456 36.4504C21.3056 36.6305 21.2856 36.8907 21.1257 36.8907C20.4263 36.9308 19.7469 36.9308 19.0475 36.9108C18.8276 36.8907 18.9875 36.6906 18.9875 36.5505C18.9875 35.7098 19.0075 34.849 19.0075 34.0083C19.0075 33.8282 18.9475 33.6681 18.8876 33.4078C19.547 33.4078 20.1665 33.4078 20.806 33.4078C21.0058 33.4078 21.1657 33.4279 21.1257 33.6881C21.0658 33.9683 20.8859 33.7481 20.786 33.7281C19.4471 33.548 19.4471 33.548 19.4871 34.9091C19.587 35.0292 19.587 35.1493 19.5071 35.2494Z" fill="#F8F8F8"/>
        <path d="M38.2315 21.7381C38.6711 21.9183 38.3114 22.1985 38.3114 22.4387C38.2714 23.2594 38.6112 24.1001 38.0716 24.9007C37.9118 25.1409 37.6719 25.7014 37.3322 25.9616C37.1923 25.8015 37.1524 25.6213 37.1724 25.4212C37.1923 25.3411 37.2123 25.2811 37.2323 25.201C37.4321 24.9007 37.6919 24.6205 37.7519 24.2402C37.7719 24.0801 37.8718 23.8198 37.7119 23.7598C36.9326 23.4595 37.3322 23.1593 37.632 22.759C37.8518 22.4587 37.612 21.9783 37.8118 21.618C38.1116 21.1977 38.1316 21.578 38.2315 21.7381Z" fill="#211D1B"/>
        <path d="M34.3347 6.7256C34.3347 6.82568 34.3347 6.94578 34.3347 7.04587C33.995 6.88573 33.7752 6.32527 33.2556 6.7256C33.0758 5.8849 32.7161 6.62552 32.4363 6.62552C32.3764 6.62552 32.3164 6.68557 32.2365 6.7256C32.0766 6.78565 32.0566 6.70558 32.0766 6.56547C32.0966 6.34528 31.8968 6.30525 31.7569 6.20517C31.617 6.10508 31.5371 6.005 31.7769 5.90492C31.8168 5.8849 31.8768 5.8849 31.9167 5.8849C31.9967 5.8849 32.0566 5.8849 32.1366 5.8849C32.0766 5.84487 31.9967 5.86488 31.9767 5.78482C32.0966 5.62468 32.2964 5.48457 32.1765 5.22435C32.5562 4.96413 32.5362 5.46455 32.796 5.5246C33.2157 5.6447 33.5154 6.04503 33.995 6.1251C34.3147 6.20517 34.3347 6.4854 34.3347 6.7256Z" fill="#24201D"/>
        <path d="M36.8326 32.427C36.0933 31.9066 35.5537 31.226 35.0541 30.4854C35.154 30.3253 35.254 30.2652 35.3739 30.4454C35.7935 31.0859 36.3331 31.5863 36.9525 32.0467C37.2323 32.2669 36.8127 32.2869 36.8326 32.427Z" fill="#201A16"/>
        <path d="M38.2315 21.7381C38.1116 21.7581 38.0916 21.3778 37.9117 21.638C37.2123 21.4379 37.0525 20.8374 36.8726 20.2569C36.8726 20.0967 36.8726 19.9366 36.8726 19.7765C36.8926 19.7765 36.9326 19.7765 36.9525 19.7765C37.2923 19.9366 38.1915 21.3178 38.2315 21.7381Z" fill="#221E1D"/>
        <path d="M22.3847 7.34612C22.4846 7.46622 22.5645 7.56631 22.6644 7.68641C22.7244 7.98666 21.8651 7.36614 22.2448 8.10675C22.3247 8.24687 21.945 8.0467 21.7852 8.10675C21.7252 8.08674 21.6853 8.02669 21.6653 7.96664C21.7452 7.74645 21.5454 7.74645 21.4255 7.66639C21.2456 7.60634 21.2856 7.48624 21.3056 7.36614C21.6853 7.24604 22.025 7.76647 22.3847 7.34612Z" fill="#FDFCFA"/>
        <path d="M19.5071 35.2488C19.5071 35.1489 19.5071 35.029 19.5071 34.9291C19.9467 35.009 20.4263 34.8492 20.846 35.089C20.8859 35.1489 20.8859 35.2089 20.846 35.2688C20.4063 35.2488 19.9467 35.2488 19.5071 35.2488Z" fill="#E0DDDE"/>
        <path d="M41.0891 38.7117C40.8293 38.4519 40.5695 38.4719 40.3098 38.7117C40.2098 38.6518 40.05 38.5119 40.1699 38.4719C40.5096 38.352 40.8893 38.352 41.229 38.4719C41.3489 38.5119 41.209 38.6518 41.0891 38.7117Z" fill="#878485"/>
        <path d="M20.846 35.2494C20.846 35.1893 20.846 35.1293 20.846 35.0692C20.846 34.9491 20.806 34.789 20.9659 34.769C21.2656 34.749 21.1257 35.0092 21.1257 35.1293C21.1257 35.3695 21.0458 35.4896 20.846 35.2494Z" fill="#7B7779"/>
        <path d="M45.7252 39.593C46.005 39.3928 45.8052 39.0726 45.8851 38.8324C46.1249 39.0926 46.0649 39.4128 45.985 39.6731C45.9051 39.9133 45.7652 39.7531 45.7252 39.593Z" fill="#7D797A"/>
        <path d="M36.8726 20.2569C37.2923 20.6572 37.3722 21.3178 37.9117 21.638C37.9517 21.9183 37.8318 22.1785 37.9117 22.4787C38.0516 22.9791 37.6519 23.1593 37.1923 23.2794C37.5121 23.4796 37.9917 23.2794 38.0117 23.6397C38.0516 24.2402 37.9117 24.8407 37.3122 25.181C37.2523 25.221 37.1923 25.221 37.1324 25.161C37.0924 25.1009 37.0724 25.0208 37.0724 24.9408C37.0924 24.1201 36.8526 23.4595 36.0533 23.2794C36.413 23.4996 36.9925 23.6997 36.8127 24.4203C36.7127 24.8207 36.453 25.161 35.9734 25.161C35.5537 25.161 35.214 25.0008 35.1341 24.5805C35.2939 25.1409 35.7136 25.241 36.2531 25.161C36.5928 25.1009 36.9126 25.0209 36.6728 25.5613C36.4729 25.8415 36.1732 25.9416 35.8535 25.9816C35.6137 26.0017 35.3539 26.0217 35.254 26.3019C35.214 26.362 35.154 26.402 35.0941 26.442C34.7943 26.3219 34.3147 26.362 34.6345 25.8015C34.7344 25.6414 34.7544 25.3611 34.5545 25.4012C34.3547 25.4412 33.935 25.1409 33.9151 25.6213C33.8951 26.2619 33.6553 25.7615 33.4555 25.7214C33.4155 26.1017 34.035 26.5021 33.4555 26.8624C33.2956 26.8824 33.2356 26.8424 33.2756 26.6822C33.5354 25.8415 32.4962 26.0817 32.3164 25.5013C32.8559 25.7014 33.2556 25.5012 33.6353 25.221C33.7552 25.1209 34.035 25.181 33.975 24.9208C33.9151 24.6605 33.6953 24.5605 33.4555 24.6005C33.1157 24.6405 32.776 24.7406 32.4363 24.7606C32.1166 24.8007 31.6769 24.8407 31.7169 24.4003C31.7569 24.1001 31.7569 23.5196 32.4563 23.6397C32.836 23.7198 33.2756 23.4996 33.4355 23.0992C33.5753 22.7389 33.5554 22.3186 33.1757 22.0384C33.0158 21.9783 32.8959 21.9583 33.0158 22.1985C33.0558 22.5388 33.1757 22.9191 32.756 23.1193C32.5762 23.1793 32.5162 23.0792 32.5562 22.9191C32.5762 22.6389 32.4163 22.4787 32.1565 22.5188C31.4971 22.6188 31.0974 22.0784 30.398 21.9583C30.9375 21.618 31.7169 21.7381 31.577 20.9374C31.5371 20.6572 31.3572 20.437 31.0375 20.397C30.7177 20.357 30.5179 20.4771 30.4779 20.8574C30.6978 20.7573 30.9176 20.5972 31.0574 20.8974C31.1574 21.1376 30.9376 21.1977 30.7777 21.2377C30.1382 21.3978 29.5187 21.4579 28.9392 21.0175C28.8793 20.8774 28.9592 20.8173 29.0591 20.7973C29.239 20.7973 29.3988 20.7773 29.5787 20.7973C29.4388 20.7773 29.3189 20.7973 29.179 20.7773C29.159 20.7573 29.1191 20.7373 29.0991 20.7173C29.159 20.6372 28.9992 20.457 29.219 20.437C29.6586 20.417 30.0383 20.1968 30.378 19.9566C30.8776 19.5763 31.4371 19.8766 31.9567 19.8165C31.8768 19.5763 32.0566 19.4962 32.2165 19.3962C32.776 19.236 33.3156 19.0959 33.5953 19.8365C33.7352 20.8774 33.7352 20.8774 35.0141 21.0575C35.1141 21.0776 35.0341 20.9174 35.0541 21.0175C34.2748 21.0175 33.7152 20.7773 33.6353 19.8766C33.6353 19.7965 33.6553 19.7364 33.6753 19.6564C33.7552 19.5163 33.8751 19.4362 34.035 19.4362C34.2548 19.4962 34.3747 19.6964 34.4946 19.8365C34.3947 19.4362 34.015 19.0759 34.3747 18.6155C34.6345 18.3153 34.4147 17.8549 34.9542 17.5947C35.4538 17.3545 36.2931 17.2344 36.6128 17.7148C36.7127 17.8549 36.7927 18.1551 36.5329 18.035C36.1132 17.8549 35.9534 18.1751 35.6736 18.2752C35.4938 18.3553 35.0541 18.1751 35.154 18.4554C35.3139 18.8957 34.7943 19.4562 35.4138 19.7565C35.4738 19.6764 35.5137 19.5363 35.6736 19.6163C35.6936 19.6564 35.7136 19.6964 35.7336 19.7364C36.0333 19.8165 35.8734 19.5163 35.9734 19.4562C36.2731 19.7364 36.5729 19.9967 36.8726 20.2569Z" fill="#FDFDFC"/>
        <path d="M31.1574 27.8832C31.1973 27.7031 31.1374 27.4429 31.3772 27.3828C31.5171 27.3428 31.597 27.543 31.6769 27.6631C32.6761 29.0842 33.6753 30.5054 34.4546 32.0867C34.5545 32.3069 34.7943 32.5471 34.5745 32.7673C34.3947 32.9475 34.1549 32.7273 33.955 32.6472C33.3555 32.427 32.756 32.1668 32.1565 31.9266C31.3972 31.6063 30.7577 31.1259 30.418 30.3653C29.6786 28.784 28.5795 27.4629 27.4605 26.1818C26.9009 25.5413 26.3813 24.8607 26.1016 24.0601C26.0216 23.8399 25.9017 23.5997 26.0017 23.3395C26.1016 23.0993 26.2415 22.8791 26.5012 22.839C26.801 22.799 26.9409 23.0192 27.0208 23.2794C27.2206 23.98 27.4005 24.6606 27.6003 25.3611C28.02 25.2611 27.7602 24.9608 27.7602 24.7606C27.7402 24.5204 27.7202 24.2602 27.6803 24.02C27.6003 23.3595 27.4005 22.6589 28.3597 22.4787C28.4796 22.4587 28.5595 22.2786 28.6794 22.1385C29.2789 23.0192 29.8984 23.8799 30.458 24.7606C30.6978 25.141 30.8776 25.5413 31.3772 25.6814C31.7769 25.7815 31.4571 26.1218 31.6769 26.422C30.7777 25.9016 30.8376 26.5021 30.7777 26.9825C30.7377 27.3628 30.8376 27.7231 30.8976 28.0834C31.1174 28.2035 31.0974 27.9433 31.1574 27.8832Z" fill="#FDFDFD"/>
        <path d="M26.0216 27.9633C25.3422 27.0826 24.7427 26.2018 23.7435 25.7014C23.3039 25.4812 22.7444 25.0208 22.8643 24.6806C23.144 23.9199 22.4846 23.7598 22.2448 23.3194C22.045 22.9591 21.965 22.5588 21.985 22.1585C22.025 21.638 22.2448 21.2977 22.8643 21.4379C22.3847 22.3786 22.4446 22.819 23.5037 23.4395C26.1016 24.9608 27.4005 27.583 29.199 29.8048C29.219 29.8449 29.199 29.9049 29.219 29.985C28.9192 30.1051 28.6595 29.945 28.3797 29.8649C27.3006 29.4846 26.3014 28.9241 25.3022 28.3436C23.5037 27.3228 21.6653 26.382 19.627 25.5613C20.3863 25.4012 20.3264 24.6605 20.766 24.3002C21.2456 23.8999 21.4455 23.8999 21.5654 24.5004C21.6853 25.1409 22.045 25.4812 22.5645 25.8215C23.4838 26.422 24.363 27.0826 25.2623 27.7031C25.4421 27.8632 25.622 28.1234 26.0216 27.9633Z" fill="#FDFDFD"/>
        <path d="M25.9417 11.3495C26.4213 11.5096 26.0216 10.9491 26.2415 10.9691C26.4813 10.9892 26.7011 11.1893 26.9609 11.1093C27.0608 11.0892 27.2206 11.0092 27.2206 10.9892C27.1407 10.4087 27.6603 10.5088 27.94 10.3486C28.0799 10.3286 28.1199 10.4287 28.1199 10.5488C27.6403 11.4696 26.9209 12.2302 26.4413 13.0909C26.6811 12.9108 26.801 12.3503 27.3405 12.5705C27.3805 13.0309 27.1207 13.4712 27.2406 13.9516C27.3006 14.1518 27.3605 14.3319 27.5803 14.392C27.8601 14.4721 27.94 14.3119 27.96 14.0717C28 13.9716 28.0599 13.8916 28.1599 13.8515C28.1199 13.9516 28.1998 13.7515 28.2398 13.8315C28.2598 13.8716 28.3597 13.7915 28.3197 13.7715C28.0999 13.5713 27.6803 13.5513 27.7002 13.1309C27.7402 13.0108 27.8201 12.9508 27.94 12.9508C28.3797 13.0909 28.8593 13.1109 29.219 13.4312C29.3389 13.5713 29.4588 13.7314 29.4188 13.8916C29.219 14.8123 29.4388 15.6731 29.8584 16.4937C29.7985 16.854 29.5187 16.834 29.2589 16.8941C28.8193 16.9141 28.5395 17.1943 28.2798 17.4946C28 17.8148 27.7202 17.8148 27.3605 17.6547C26.8809 17.4345 26.4413 17.1543 26.0616 16.814C25.7419 16.5138 25.642 16.1735 25.7818 15.7331C26.0816 14.8324 26.0616 14.8324 25.0824 14.7723C25.0425 14.7723 24.9825 14.7323 24.9425 14.7123C24.8826 14.5521 24.8027 14.452 24.6428 14.372C24.5828 14.352 24.5629 14.3119 24.5429 14.2519C24.5429 14.1518 24.6028 14.0517 24.5828 13.9316C24.4629 13.8515 24.2831 13.8315 24.2431 13.6514C24.3231 13.3912 24.3231 13.0909 24.6028 12.9108C24.6028 12.8307 24.6228 12.7706 24.6228 12.6906C24.9425 12.8107 25.2823 13.0909 25.4621 12.4704C25.4821 12.3903 26.1016 12.5304 26.2415 12.0901C26.3414 11.8699 26.1016 11.7298 26.0816 11.5496C26.0416 11.5296 26.0017 11.5096 25.9617 11.4896C25.9217 11.4495 25.9017 11.4095 25.9217 11.3895C25.9217 11.3695 25.9417 11.3495 25.9417 11.3495Z" fill="#201B17"/>
        <path d="M24.9026 14.7323C25.1024 14.7923 25.2223 14.6522 25.4022 14.5922C25.642 14.5121 25.9017 14.4921 26.1016 14.6922C26.3014 14.9124 26.2415 15.1526 26.1415 15.3928C25.7219 16.3937 25.7419 16.4537 26.6012 17.0542C26.6411 17.0742 26.6811 17.1143 26.7211 17.1343C27.7402 17.8148 27.8201 17.8148 28.5995 16.8941C28.7993 16.6739 28.9992 16.5938 29.239 16.774C29.3988 16.9341 29.3988 17.1343 29.4188 17.3144C29.4388 17.4545 29.5187 17.5346 29.6386 17.5947C29.8385 17.7348 30.0383 17.8549 30.1182 18.1151C30.1382 18.2152 30.1582 18.3353 30.1582 18.4354C30.1382 18.6155 30.1182 18.7957 29.9384 18.8957C29.3589 18.8757 28.9592 18.4754 28.4796 18.2352C28.1998 18.4153 27.8401 18.5154 27.5604 18.3553C26.7211 17.8949 25.8218 17.5346 25.1824 16.774C25.1224 16.6739 25.0824 16.5738 25.0624 16.4537C25.0425 16.2335 25.0025 16.0133 25.0225 15.7932C25.0025 15.613 25.1624 15.3728 24.9026 15.2527C24.6628 15.0926 25.0025 14.9124 24.9026 14.7323Z" fill="#FBFBFA"/>
        <path d="M29.9983 18.1351C29.8385 17.975 29.6986 17.8148 29.5387 17.6547C29.4188 17.5146 29.4188 17.3545 29.5187 17.1943C30.0383 17.0942 30.5179 17.3945 31.0375 17.3745C31.2773 17.4545 31.5371 17.4345 31.7769 17.5146C32.2964 17.6547 32.796 17.8549 32.9359 18.4354C33.0758 19.0158 32.5562 19.176 32.2365 19.4562C32.1366 19.5563 32.0366 19.6564 31.9367 19.7765C31.3572 18.8557 30.9176 18.7756 30.0183 19.4562C29.5787 19.7765 29.1391 20.0167 28.5795 19.7364C28.3397 19.6163 28.1998 19.4162 28.1799 19.1359C28.1599 18.8157 28.2798 18.8957 28.5196 18.9158C28.6994 18.9158 28.4196 18.6155 28.4996 18.4554C28.7394 18.1751 28.8793 18.4554 29.0191 18.5555C29.2589 18.7356 29.5587 18.7156 29.8185 18.8557C29.9983 18.7556 29.9784 18.5555 29.9784 18.3953C30.0383 18.3553 30.0983 18.3153 30.1382 18.2752C30.1982 18.2352 30.2981 18.2752 30.3381 18.1751C30.2781 18.2152 30.1982 18.2152 30.1382 18.2152C30.0983 18.2352 30.0383 18.1952 29.9983 18.1351Z" fill="#F9F9F8"/>
        <path d="M23.5437 14.392C23.4838 14.412 23.4438 14.432 23.3839 14.452C23.224 14.4721 23.0841 14.5521 22.9242 14.5121C22.6445 14.412 22.2848 14.5121 22.045 14.2519C22.3247 13.8315 22.025 13.6914 21.7052 13.5913C21.4654 13.5113 21.3655 13.4112 21.4255 13.1309C21.4854 12.8507 21.6653 12.6505 21.8851 12.6305C22.1849 12.6105 22.045 12.8907 22.065 13.0709C22.1049 13.3111 22.2248 12.9908 22.3047 13.0709C22.5046 13.231 22.5445 13.5513 22.8243 13.6714C22.8843 13.7114 22.9442 13.7314 22.9842 13.7915C23.164 13.9716 23.5837 13.9917 23.5437 14.392Z" fill="#EDECEB"/>
        <path d="M24.7427 18.6155C24.3231 18.5555 23.8834 18.5755 23.7036 18.0951C23.9434 17.7748 24.6428 18.3553 24.6628 17.5947C24.9825 17.6347 25.2623 17.7948 25.4421 18.055C25.7619 18.5354 25.0625 18.3153 25.0625 18.5755C24.9426 18.6756 24.8426 18.6756 24.7427 18.6155Z" fill="#EFEEED"/>
        <path d="M22.7644 10.7089C23.244 10.6689 23.164 11.4295 23.6636 11.4295C23.6636 11.4495 23.6436 11.4896 23.6436 11.4896C23.5037 11.6297 23.4238 11.9299 23.144 11.7898C22.7843 11.6297 22.3047 11.6097 22.2648 11.1093C22.2248 10.9892 22.3647 10.6289 22.7644 10.7089Z" fill="#EEEDEC"/>
        <path d="M23.2839 9.96831C23.244 9.74812 24.0033 9.78816 23.4438 9.38783C23.3439 9.30776 23.5437 9.28774 23.6236 9.24771C23.7635 9.18766 23.9034 9.14762 24.0033 9.30776C24.3031 9.84821 24.9026 10.3086 24.5629 11.0492C24.363 10.9091 24.5629 10.5688 24.3031 10.4487C23.9434 10.3086 23.4638 10.4287 23.2839 9.96831Z" fill="#34312E"/>
        <path d="M35.0741 26.442C35.0941 26.362 35.0941 26.2819 35.1141 26.2018C35.2939 26.1218 35.4538 26.0017 35.6336 25.9216C36.2331 25.7214 36.4929 26.0017 36.413 26.6822C35.8135 26.2218 35.8734 27.1827 35.3938 27.1026C35.4138 26.8424 35.3739 26.5621 35.0741 26.442Z" fill="#F1F1F0"/>
        <path d="M24.6028 14.2319C24.6028 14.2919 24.6228 14.3319 24.6228 14.392C24.383 14.412 24.4829 14.9124 24.2231 14.7723C24.0433 14.6522 23.9833 14.3119 23.8834 14.0717C23.6636 14.0117 23.3639 14.0117 23.5437 13.6314C23.7036 13.5913 23.8435 13.5313 24.0033 13.4912C24.0833 13.5713 24.2231 13.5113 24.2831 13.6314C24.423 13.8916 24.9026 13.4512 24.9226 13.9516C24.8027 14.0517 24.5029 13.9116 24.6028 14.2319Z" fill="#D9D8D6"/>
        <path d="M36.413 26.6822C36.5129 26.362 36.413 26.1418 36.1132 26.0217C35.8535 25.9016 35.6536 25.9416 35.5137 26.2419C35.3739 26.5421 35.234 26.2218 35.1141 26.2018C35.154 25.8015 35.4538 25.7214 35.7735 25.7615C36.1132 25.8015 36.353 25.6614 36.5928 25.5012C36.6928 25.5213 36.7527 25.5813 36.8127 25.6614C36.8127 25.7214 36.8127 25.7815 36.7927 25.8415C36.7527 25.9616 36.7327 26.0817 36.6328 26.1618C36.5928 26.362 36.6328 26.5621 36.413 26.6822Z" fill="#393633"/>
        <path d="M25.0425 18.7156C25.4221 18.9358 25.3422 19.216 25.1424 19.4962C25.0025 19.6964 24.7227 19.6964 24.5429 19.6163C24.2831 19.5363 24.2431 19.256 24.2831 18.9958C24.3231 18.8357 24.4629 18.8757 24.5828 18.8757C24.8227 19.0759 24.8826 18.7756 25.0425 18.7156Z" fill="#EFEEED"/>
        <path d="M24.2631 13.6314C24.1632 13.5913 24.0833 13.5313 23.9833 13.4912C23.8634 13.2911 23.4838 13.191 23.6636 12.8507C23.8634 12.5104 24.0633 12.8907 24.2631 12.8707C24.363 12.8507 24.4629 12.8907 24.5429 12.9108C24.6628 13.251 24.443 13.4312 24.2631 13.6314Z" fill="#BEBCBA"/>
        <path d="M22.4846 15.2927C22.7044 15.593 23.1241 15.2727 23.3639 15.573C23.184 15.8532 22.8643 15.7131 22.6445 15.8332C22.4246 15.9533 22.1449 15.8932 22.0649 15.6731C21.965 15.3728 22.3047 15.3928 22.4846 15.2927Z" fill="#CDCBC9"/>
        <path d="M21.4455 8.46705V8.54712C21.4654 8.76731 21.7652 9.06756 21.3655 9.18766C21.1857 9.24771 20.846 9.20767 20.786 8.98749C20.6861 8.60717 21.1057 8.56714 21.3056 8.407C21.4055 8.32694 21.4455 8.34695 21.4455 8.46705Z" fill="#EBEBE9"/>
        <path d="M23.2839 9.9683C23.6636 10.0284 23.9833 10.2285 24.2831 10.4687C24.0433 10.5888 23.7635 10.4487 23.5037 10.5888C23.204 10.7289 23.0641 10.4887 23.1041 10.1885C23.164 10.1084 23.224 10.0484 23.2839 9.9683Z" fill="#E9E4E0"/>
        <path d="M22.7843 13.7715C22.2448 13.7715 22.4246 13.3311 22.3447 13.0509C22.5645 13.0509 22.7843 13.0709 23.0042 13.0709C23.1041 13.3511 23.144 13.6314 22.7843 13.7715Z" fill="#3F3B38"/>
        <path d="M23.5437 13.6314C23.4238 13.9716 23.7635 13.9116 23.8834 14.0717C23.7635 14.1718 23.6636 14.2919 23.5437 14.392C23.4038 14.1318 22.9442 14.1918 22.9242 13.7915C23.0441 13.5713 23.224 13.5113 23.4438 13.6514C23.4838 13.6113 23.5038 13.6113 23.5437 13.6314Z" fill="#3B3835"/>
        <path d="M29.8385 18.8757C29.2989 19.0559 28.9792 18.5354 28.5196 18.4754C28.5196 18.3953 28.4996 18.3353 28.4996 18.2552C29.0391 18.2152 29.4188 18.6155 29.8385 18.8757Z" fill="#2C2722"/>
        <path d="M24.1432 15.653C24.1432 16.3336 23.6636 16.5938 23.3439 16.9541C23.3839 16.4337 23.7036 16.0734 24.1432 15.653Z" fill="#E2E0E0"/>
        <path d="M23.3039 12.3503C23.3439 12.5304 23.2639 12.5705 23.0841 12.5705C22.8843 12.5505 22.7644 12.5304 22.8043 12.2902C22.8243 12.1701 22.7843 11.97 23.0241 12.03C23.184 12.05 23.3639 12.1101 23.3039 12.3503Z" fill="#F9F7F5"/>
        <path d="M22.4846 15.2927C22.6245 14.8123 22.1049 15.0926 21.985 14.8324C22.2648 14.8324 22.5046 14.8324 22.7644 14.8324C22.8043 14.7723 22.8643 14.7723 22.9242 14.7723C23.0042 14.8123 23.0641 14.8924 23.0841 14.9925C23.0841 15.4929 22.6445 15.1126 22.4846 15.2927Z" fill="#DFDDDA"/>
        <path d="M25.1624 16.4337C25.1624 16.5538 25.1824 16.6939 25.1824 16.814C24.7028 16.1735 24.6628 16.0534 24.8826 15.4729C24.9625 15.5329 25.0025 15.613 25.0225 15.7131C25.0624 15.9533 25.0824 16.1935 25.1624 16.4337Z" fill="#F4F2EF"/>
        <path d="M36.7127 25.7815C36.7127 25.7214 36.7127 25.6814 36.7127 25.6213C36.7127 25.3411 36.8526 25.181 37.1324 25.161C37.1923 25.161 37.2523 25.161 37.3122 25.161C37.3122 25.201 37.3122 25.241 37.3122 25.2811C37.1724 25.4412 37.3722 25.7615 37.0325 25.8215C36.9925 25.8015 36.9326 25.7815 36.8926 25.7815C36.8326 25.8415 36.7727 25.8415 36.7127 25.7815Z" fill="#E5E4E2"/>
        <path d="M23.9234 18.9355C23.7635 18.9954 23.7036 19.0354 23.6436 19.0354C23.4838 19.0354 23.3039 19.0154 22.9442 18.9754C23.3639 18.6957 23.6037 18.6757 23.9234 18.9355Z" fill="#DEDEDE"/>
        <path d="M23.4638 13.6314C23.2839 13.6514 23.0841 13.6514 22.9442 13.7715C22.8843 13.7715 22.8443 13.7515 22.7843 13.7515C23.0042 13.5713 22.9442 13.2911 23.0042 13.0509C23.144 13.251 23.3039 13.4512 23.4638 13.6314Z" fill="#C1BEBC"/>
        <path d="M24.9226 15.7331C24.9026 15.653 24.9026 15.553 24.8826 15.4729C24.8826 15.4128 24.8826 15.3528 24.8826 15.2927C24.9825 15.2527 25.1624 15.1526 25.2023 15.1927C25.3822 15.3728 25.1624 15.553 25.1624 15.7331C25.0824 15.8132 25.0025 15.8132 24.9226 15.7331Z" fill="#4B4948"/>
        <path d="M27.7602 24.7206C27.9201 24.9208 27.8801 25.181 27.8801 25.4212C27.8801 25.5213 27.9201 25.7014 27.7202 25.6414C27.6003 25.6013 27.5604 25.4812 27.5804 25.3411C27.8801 25.201 27.6403 24.9208 27.7602 24.7206Z" fill="#959493"/>
        <path d="M32.5162 22.9191C32.5762 22.979 32.6561 23.059 32.7161 23.1189C32.6961 23.1589 32.6561 23.1989 32.6361 23.2188C32.4563 23.3188 32.2764 23.3987 32.0966 23.2188C32.0566 23.1789 31.9767 23.079 31.9967 23.039C32.1366 22.8392 32.3564 22.999 32.5162 22.9191Z" fill="#E4E3E1"/>
        <path d="M21.4455 8.46706C21.4055 8.44704 21.3456 8.42702 21.3056 8.40701C21.2856 8.22686 21.2257 8.04671 21.4055 7.90659C21.5254 7.84654 21.6253 7.84654 21.7252 7.94662C21.7452 8.00667 21.7652 8.04671 21.7852 8.10676C21.8052 8.32694 21.6053 8.38699 21.4455 8.46706Z" fill="#94918F"/>
        <path d="M25.0425 18.7156C25.0025 18.8957 25.0025 19.1359 24.7427 19.156C24.5629 19.176 24.6228 18.9758 24.5828 18.8757C24.7027 18.8157 24.7427 18.7156 24.7427 18.5955C24.8426 18.5955 24.9425 18.5755 25.0425 18.5755C25.0425 18.6355 25.0425 18.6756 25.0425 18.7156Z" fill="#262522"/>
        <path d="M22.9442 14.8324C22.8843 14.8324 22.8243 14.8324 22.7644 14.8324C22.5845 14.5321 22.2648 14.7923 22.045 14.6722C22.005 14.5321 22.0849 14.4721 22.1849 14.412C22.2648 14.392 22.3247 14.392 22.4047 14.372C22.6245 14.352 22.8443 14.392 23.0641 14.4721C23.204 14.6722 23.0841 14.7523 22.9442 14.8324Z" fill="#FAF9F6"/>
        <path d="M22.2248 14.5121C22.1649 14.5721 22.1049 14.6122 22.0649 14.6722C21.8451 14.6922 21.7052 14.5721 21.5654 14.432C21.5254 14.3319 21.5454 14.2319 21.6053 14.1518C21.6853 14.1918 21.7852 14.2118 21.8651 14.2519C21.985 14.352 22.2448 14.2519 22.2248 14.5121Z" fill="#CBC9C7"/>
        <path d="M22.2248 14.5116C22.1049 14.4317 21.985 14.3318 21.8651 14.2518C21.9251 14.2518 21.985 14.2319 22.0649 14.2319C22.3447 14.3318 22.7044 14.112 22.9642 14.3917C22.7843 14.5516 22.5445 14.3917 22.3647 14.5116L22.3047 14.5316L22.2248 14.5116Z" fill="#33302E"/>
        <path d="M29.1391 20.8173C29.0791 20.8774 28.9992 20.9374 28.9392 21.0175C28.6994 20.9174 28.5396 20.7573 28.5196 20.437C28.7394 20.5371 28.9192 20.6172 29.0991 20.6972V20.6772C29.1191 20.7173 29.1391 20.7573 29.1391 20.8173Z" fill="#DDDAD8"/>
        <path d="M21.6053 14.1517C21.5853 14.2516 21.5853 14.3315 21.5654 14.4314C21.3855 14.3915 21.1857 14.3915 21.0258 14.1717C21.2256 14.0518 21.4055 14.0518 21.6053 14.1517Z" fill="#989593"/>
        <path d="M32.9759 22.1778C32.816 22.0579 32.5762 22.0379 32.4963 21.7781C32.796 21.6982 32.9759 21.8181 33.1357 22.0179C33.0958 22.0779 33.0358 22.1378 32.9759 22.1778Z" fill="#43413F"/>
        <path d="M22.3447 14.5119C22.5046 14.332 22.7444 14.412 22.9442 14.392C23.0841 14.412 23.244 14.432 23.3838 14.4519C23.3439 14.4919 23.2839 14.5119 23.244 14.5519C23.204 14.6318 23.144 14.6318 23.0841 14.5718C22.8443 14.5319 22.6045 14.5319 22.3447 14.5119Z" fill="#2C2927"/>
        <path d="M33.2756 26.6622C33.3356 26.7223 33.3955 26.7823 33.4555 26.8424C33.3755 27.0025 33.2556 27.2827 33.0558 27.0626C32.8759 26.9024 33.1357 26.7823 33.2756 26.6622Z" fill="#FCFAF7"/>
        <path d="M36.7127 25.7815C36.7727 25.7815 36.8326 25.7815 36.8926 25.7815C36.8127 25.9214 37.0525 26.301 36.6128 26.1412C36.6128 26.0413 36.5329 25.8814 36.7127 25.7815Z" fill="#B8B5B1"/>
        <path d="M31.1574 27.8832C31.1574 28.0634 31.1574 28.2435 31.1574 28.4437C30.9376 28.3436 30.8776 28.2035 30.8976 28.0234C30.9975 27.9833 31.0774 27.9233 31.1574 27.8832Z" fill="#646363"/>
        <path d="M24.5828 19.8962C24.3231 19.9561 24.0833 20.076 23.9434 19.7363C24.2231 19.5365 24.383 19.7563 24.5828 19.8962Z" fill="#EDEBEB"/>
        <path d="M22.4446 12.3297C22.4246 12.4297 22.3247 12.4496 22.2248 12.4097C22.1049 12.3697 22.005 12.2898 22.025 12.1299C22.045 11.99 22.1249 11.99 22.2248 12.05C22.3247 12.1099 22.4646 12.1499 22.4446 12.3297Z" fill="#D6D3D0"/>
        <path d="M37.0325 25.8415C37.3722 25.7815 37.0525 25.4012 37.3122 25.3011C37.3122 25.5012 37.3122 25.7214 37.3122 25.9216C37.2323 25.9016 37.1324 25.8816 37.0325 25.8415Z" fill="#231F20"/>
        <path d="M23.0841 14.5521C23.144 14.5521 23.184 14.5321 23.244 14.5321C23.244 14.6922 23.2639 14.8724 23.0841 14.9925C23.0441 14.9324 22.9842 14.8924 22.9442 14.8324C23.0042 14.7323 23.0441 14.6522 23.0841 14.5521Z" fill="#EEECEA"/>
        <path d="M21.7252 7.92612C21.6253 7.90614 21.5054 7.90614 21.4055 7.88615C21.4055 7.80622 21.4255 7.72629 21.4255 7.64636C21.5853 7.70631 21.965 7.4665 21.7252 7.92612Z" fill="#656361"/>
        <path d="M21.3456 11.7094C21.2856 11.8093 21.2256 11.9092 21.2057 11.8892C21.0858 11.8692 20.9659 11.8093 20.9859 11.6494C20.9859 11.5895 21.0258 11.5295 21.0658 11.4696C21.1457 11.5695 21.2456 11.6294 21.3456 11.7094Z" fill="#B9B5B3"/>
        <path d="M32.776 13.0108C32.836 13.0709 32.9159 13.1109 32.9759 13.171C33.0958 13.3111 32.9159 13.4912 33.0358 13.6113C33.1157 13.7515 33.1557 13.8916 33.2356 14.0117C33.3156 14.1718 33.5154 14.2919 33.3955 14.5121C33.0758 14.5521 32.776 14.5721 32.5162 14.352C32.3963 14.2919 32.1965 14.3319 32.1765 14.1718C32.1366 13.9516 32.0566 14.1718 32.0166 14.1518C31.7768 14.1918 31.4771 14.0517 31.3572 14.412C31.3372 14.4921 31.3572 14.5922 31.4371 14.6122C32.0566 14.7723 31.9567 15.1726 31.8168 15.613C31.7569 15.653 31.6969 15.6731 31.637 15.6731C31.4171 15.633 31.2773 15.4529 31.1374 15.2727C31.1374 15.5129 31.1174 15.7331 30.9775 15.9133C30.8576 16.0334 30.7177 16.1134 30.5779 16.1935C30.398 16.2736 30.2981 16.4937 30.0982 16.5338C29.9783 16.5138 29.9184 16.4337 29.8784 16.3336C29.7186 15.9333 29.3988 15.553 29.7585 15.1126C29.9384 14.8524 30.2581 14.7323 30.438 14.392C30.2581 14.5521 30.0983 14.7123 29.8784 14.5922C29.7186 14.2919 29.7985 13.9316 29.6586 13.6314C29.5987 13.3912 29.3589 13.2911 29.2589 13.0709C29.179 12.8707 29.1191 12.6706 29.2589 12.4304C29.6386 11.7698 29.4188 10.9691 28.7594 10.5088C28.6594 10.1685 28.8593 10.0284 29.139 9.92827C29.2589 9.78815 29.3589 9.608 29.4987 9.50792C29.5987 9.44787 29.8385 9.40784 29.8185 9.62802C29.7785 9.92827 29.4588 10.2085 29.6986 10.5288C29.8984 10.789 30.0783 11.0492 29.9384 11.4095C30.3181 11.3495 30.1582 11.0492 30.2981 10.9291C30.4779 10.789 30.9376 11.0292 30.8776 10.5488C30.9975 10.6088 31.1773 10.6289 31.2173 10.5488C31.4171 9.86822 31.6769 10.4487 31.9167 10.4887C32.0966 10.4287 32.2764 10.3686 32.2764 10.6889C32.0766 11.2894 31.8568 11.8899 31.6769 12.4904C31.617 12.6906 31.617 12.9108 31.8568 13.0709C32.1565 13.2911 32.4563 13.151 32.776 13.0108Z" fill="#211C18"/>
        <path d="M29.1191 9.90825C28.9992 10.1284 28.8793 10.3486 28.7594 10.5888C28.5995 11.2294 28.04 11.6297 27.7202 12.1701C27.5804 12.3103 27.4804 12.4904 27.3006 12.5905C26.9009 12.5505 26.861 12.9308 26.6411 13.1109C26.4413 13.2711 26.3414 13.5513 25.9417 13.6113C26.5212 12.4304 27.3406 11.4896 28.04 10.4887C28.1399 10.2485 28.2998 10.0684 28.4996 9.88824C28.5396 9.84821 28.5995 9.80817 28.6395 9.76814C28.7194 9.70809 28.8193 9.68807 28.9192 9.70809C28.9792 9.76814 29.0591 9.82819 29.1191 9.90825Z" fill="#EFEEED"/>
        <path d="M33.2756 8.40701C33.3156 8.62719 33.2756 8.84737 33.0558 9.00751C32.8959 9.12761 32.6761 9.22769 32.4963 9.12761C32.2964 9.00751 32.4563 8.82736 32.5162 8.66722C32.5562 8.54712 32.6162 8.40701 32.5762 8.30692C32.4763 7.94662 32.7361 7.72644 32.9559 7.72644C33.3156 7.72644 33.2756 8.08674 33.2756 8.40701Z" fill="#312D2A"/>
        <path d="M29.3389 8.96747C29.4188 8.70725 29.259 8.58715 29.0591 8.5271C28.6994 8.407 28.7394 8.12677 28.7993 7.76647C29.179 8.26688 29.5787 8.5271 30.2381 8.14679C30.0583 8.62719 29.7785 8.78732 29.5387 8.98749C29.4788 9.04754 29.3988 9.04754 29.3389 8.96747Z" fill="#3C3937"/>
        <path d="M30.5379 4.94412C30.6178 5.08424 30.8376 5.12427 30.7977 5.32443C30.4979 5.24437 30.458 5.66472 30.418 5.6447C30.1782 5.48457 30.0383 5.22435 30.1382 4.9241C30.2781 4.84403 30.418 4.82402 30.5379 4.94412Z" fill="#5B5956"/>
        <path d="M29.3389 8.96747C29.3988 8.96747 29.4788 8.98749 29.5387 8.98749C29.3788 9.22769 29.199 9.44787 28.9392 9.56797C28.8793 9.54796 28.8393 9.48791 28.8193 9.42786C28.7394 9.00751 28.8193 8.72727 29.3389 8.96747Z" fill="#555251"/>
        <path d="M28.6195 9.88824C28.4596 10.1284 28.2997 10.3686 28.04 10.4887C28 10.4487 27.96 10.4087 27.94 10.3686C27.94 10.0083 28 9.68807 28.4796 9.70809C28.5595 9.7281 28.6195 9.78815 28.6195 9.88824Z" fill="#3D3A37"/>
        <path d="M34.055 8.1668C34.055 8.24687 34.035 8.32694 34.035 8.42702C33.8751 8.50709 33.6153 8.74728 33.7352 8.30692C33.8351 7.98665 33.7952 7.72643 33.5554 7.50625C33.5154 7.46622 33.4954 7.42618 33.5354 7.40617C33.5554 7.38615 33.5754 7.36613 33.5953 7.36613C33.995 7.48623 34.035 7.82652 34.055 8.1668Z" fill="#24201D"/>
        <path d="M26.5412 10.0679C26.3614 10.028 26.1416 10.0679 25.9817 9.78815C26.3814 9.82812 26.761 9.86809 27.1207 9.90805C27.0208 10.2877 26.7411 10.0679 26.5412 10.0679Z" fill="#232120"/>
        <path d="M27.2206 8.86725C27.4604 8.78732 27.6603 8.70738 27.8002 8.9272C27.8201 8.96717 27.7402 9.14702 27.6803 9.167C27.5004 9.22695 27.3405 9.12703 27.2206 8.86725Z" fill="#302C2A"/>
        <path d="M26.0816 11.5696C26.2015 11.7298 26.5013 11.8499 26.2415 12.1101C26.0416 11.97 25.5221 11.9299 26.0816 11.5696Z" fill="#B8B5B3"/>
        <path d="M28.3797 5.80444C28.0999 5.76447 27.8002 5.72451 27.5204 5.68454C27.8202 5.50469 28.1199 5.52467 28.3797 5.80444Z" fill="#41403F"/>
        <path d="M23.9034 8.06647C23.8235 8.12642 23.7635 8.24633 23.6636 8.28629C23.5237 8.32626 23.4438 8.20636 23.4438 8.08646C23.4438 7.92659 23.5837 7.90661 23.7036 7.92659C23.7635 7.92659 23.8834 7.88662 23.9034 8.06647Z" fill="#6B6967"/>
        <path d="M26.5412 10.0681C26.7211 9.96821 26.9809 10.168 27.1207 9.90826C27.2606 9.96821 27.5004 10.0481 27.2007 10.168C27.0008 10.248 26.7411 10.228 26.5412 10.0681Z" fill="#ABABAA"/>
        <path d="M28.9792 5.28408C28.7194 5.38399 28.5595 5.42396 28.3997 5.30406C28.3397 5.26409 28.3197 5.16418 28.4197 5.12421C28.5995 5.02429 28.7394 5.14419 28.9792 5.28408Z" fill="#8D8C8C"/>
        <path d="M32.816 12.1101C32.816 12.1501 32.816 12.2102 32.816 12.2502C32.6361 12.4504 32.4363 12.6105 32.0166 12.5505C32.3564 12.3503 32.5362 12.1501 32.816 12.1101Z" fill="#211F1D"/>
        <path d="M31.9967 9.68762C32.0566 9.40785 32.2565 9.38787 32.4763 9.42783C32.4963 9.42783 32.5362 9.5877 32.5162 9.60768C32.3764 9.80752 32.1765 9.76755 31.9967 9.68762Z" fill="#322F2E"/>
        <path d="M27.8002 8.36697C27.8201 8.18682 27.8601 8.02668 27.8801 7.78648C28.0999 8.02668 28.0599 8.20683 27.8002 8.36697Z" fill="#353431"/>
        <path d="M34.7544 9.28774C35.0741 9.60801 34.8743 10.0083 34.9142 10.3887C34.6345 10.0484 34.9342 9.62803 34.7544 9.28774Z" fill="#24201D"/>
        <path d="M30.8576 10.5288C31.1774 11.428 30.358 10.6087 30.2781 10.9085C30.4779 10.7886 30.6578 10.6487 30.8576 10.5288Z" fill="#B5B2AF"/>
        <path d="M25.1824 9.72811C25.1824 9.84821 25.2423 9.96831 25.1224 10.0684C25.0624 9.96831 24.9825 9.88824 24.9625 9.78816C24.9226 9.66806 24.9425 9.54796 24.9425 9.42786C25.1823 9.38783 25.0625 9.66806 25.1824 9.72811Z" fill="#6E6D6D"/>
        <path d="M33.5953 7.36583C33.6153 7.42578 33.5953 7.46575 33.5554 7.50572C33.3156 7.5257 33.1357 7.44577 32.9958 7.24594C33.2556 7.08607 33.4155 7.2859 33.5953 7.36583Z" fill="#7E7D7C"/>
        <path d="M30.5379 4.94356C30.398 4.94356 30.2581 4.92357 30.1382 4.92357C30.1382 4.82365 30.1382 4.72374 30.1582 4.60384C30.2981 4.78369 30.6178 4.68377 30.7377 4.92357C30.6578 4.94355 30.5978 4.94356 30.5379 4.94356Z" fill="#EBE9E6"/>
        <path d="M28.6195 9.88824C28.5595 9.82819 28.5196 9.76814 28.4596 9.70809C28.4396 9.56797 28.2798 9.48791 28.3597 9.32777C28.4396 9.38782 28.5396 9.42786 28.6195 9.48791C28.7594 9.60801 28.7394 9.74812 28.6195 9.88824Z" fill="#25211E"/>
        <path d="M32.2365 10.6483C32.1565 10.5084 32.0167 10.4884 31.8768 10.4484C32.0566 10.3085 32.2964 10.2086 32.4763 10.3485C32.5762 10.4284 32.3764 10.5883 32.2365 10.6483Z" fill="#2C2928"/>
        <path d="M28.6395 9.86749C28.6395 9.72761 28.6395 9.60771 28.6395 9.46782C28.6994 9.44784 28.7594 9.44784 28.8193 9.42786C28.8593 9.46782 28.8992 9.50779 28.9392 9.56774C28.9192 9.60771 28.9192 9.64767 28.9192 9.68764C28.8193 9.74759 28.7194 9.80754 28.6395 9.86749Z" fill="#383635"/>
        <path d="M31.9967 7.58621C32.0167 7.78605 31.8768 7.78605 31.7769 7.846C31.6969 7.88596 31.637 7.84599 31.637 7.76606C31.617 7.60619 31.7769 7.58621 31.8568 7.52626C31.8568 7.50628 31.9367 7.56623 31.9967 7.58621Z" fill="#706F6E"/>
        <path d="M32.0766 6.58549C32.1366 6.64544 32.1765 6.6854 32.2365 6.74535C32.1166 6.88524 31.9167 7.10506 31.7968 6.94519C31.597 6.6854 31.9767 6.70539 32.0766 6.58549Z" fill="#575654"/>
        <path d="M23.244 6.44515C23.244 6.54506 23.184 6.60501 23.0641 6.56504C22.9842 6.54506 22.9043 6.52508 22.8243 6.50509C22.8843 6.44514 22.9442 6.36521 23.0242 6.32524C23.1241 6.28528 23.224 6.32525 23.244 6.44515Z" fill="#575755"/>
        <path d="M31.9967 5.80484C32.1565 5.84481 32.3364 5.76487 32.4763 5.92474C32.2365 6.12457 32.0167 6.00467 31.7769 5.92474C31.8568 5.88477 31.9167 5.84481 31.9967 5.80484Z" fill="#E8E5E2"/>
        <path d="M25.9417 11.3492C25.9417 11.4092 25.9417 11.4691 25.9417 11.5091C25.7619 11.5291 25.642 11.4292 25.5021 11.3293C25.6619 11.1494 25.8018 11.2094 25.9417 11.3492Z" fill="#62605F"/>
        <path d="M25.1824 9.72811C25.1024 9.62802 25.0225 9.52794 24.9226 9.42786C24.9226 9.26772 25.0225 9.18766 25.1424 9.26772C25.3222 9.38782 25.2223 9.56797 25.1824 9.72811Z" fill="#3B3937"/>
        <path d="M31.4571 38.7923C32.856 38.8524 33.7752 39.9533 33.6952 41.4946C33.6353 42.8757 32.796 43.7565 31.597 43.7164C30.1582 43.6764 29.2789 42.6155 29.3389 40.9541C29.3988 39.613 30.2381 38.7323 31.4571 38.7923Z" fill="#776763"/>
        <path d="M31.637 15.593C31.6969 15.593 31.7369 15.593 31.7968 15.593C31.8968 15.4929 31.9967 15.5129 32.0766 15.593C32.2964 15.7932 32.5362 15.9533 32.836 16.0133C33.4355 16.1334 33.8351 16.4937 34.055 17.0542C34.2748 17.5546 34.1749 18.1151 34.3547 18.6155C34.3747 19.236 34.6345 19.7565 34.8743 20.3369C34.4147 20.2569 34.3147 19.7765 34.035 19.4962C33.9351 19.4162 33.8551 19.3361 33.8351 19.216C33.7352 19.3561 33.8551 19.5163 33.7752 19.6564C33.7552 19.6964 33.7352 19.7565 33.7152 19.7965C33.6353 19.8766 33.5554 19.8966 33.4754 19.7965C33.1757 19.196 32.6761 19.5363 32.2365 19.4962C32.2565 19.3361 32.1765 19.156 32.3764 19.0359C32.9559 18.6756 32.9159 18.3153 32.3364 17.9149C31.9367 17.6347 31.4172 17.8949 31.0575 17.5346C31.0774 17.5146 31.0974 17.4746 31.0974 17.4545C31.3172 17.2544 31.4371 16.9942 31.4371 16.6939C31.4571 16.5338 31.4172 16.3937 31.3572 16.2535C31.3172 16.1735 31.2973 16.0734 31.2773 15.9933C31.2973 15.7731 31.4571 15.6731 31.637 15.593Z" fill="#201B17"/>
        <path d="M32.0766 15.593C31.9767 15.593 31.8768 15.593 31.7968 15.593C31.8768 15.0926 31.637 14.7923 31.1774 14.6322C31.1574 14.6322 31.1973 14.452 31.1973 14.372C31.4571 14.2118 31.617 14.372 31.7968 14.5321C32.1965 14.7923 31.9967 15.2327 32.0766 15.593Z" fill="#241F1C"/>
        <path d="M31.7968 14.5321C31.597 14.4721 31.3972 14.432 31.1973 14.372C31.2972 13.6113 31.6969 13.9316 32.0766 14.1318C32.1565 14.412 31.7968 14.2319 31.7968 14.432C31.7968 14.452 31.7968 14.4921 31.7968 14.5321Z" fill="#E4E3E2"/>
        <path d="M33.4155 14.5121C33.2956 14.352 33.1757 14.1918 33.0358 14.0317C33.0958 13.9516 33.1757 13.8716 33.2756 13.8515C33.4754 13.8115 33.6153 13.8916 33.6953 14.0717C33.7152 14.1718 33.7552 14.2319 33.8551 14.2319C33.8351 14.5121 33.6553 14.5521 33.4155 14.5121Z" fill="#979594"/>
        <path d="M31.7968 14.4115C31.6769 14.1117 32.0566 14.2916 32.0766 14.1117C32.3564 13.9718 32.3764 14.3115 32.5362 14.3515C32.2764 14.3715 32.0366 14.3915 31.7968 14.4115Z" fill="#363432"/>
        <path d="M35.254 13.9316C35.3139 13.8716 35.3539 13.8315 35.4138 13.7715C35.5937 13.9116 35.5737 14.1118 35.6336 14.352C35.3139 14.3319 35.214 14.1918 35.254 13.9316Z" fill="#5E5D5C"/>
        <path d="M34.4546 14.2118C34.5146 14.2719 34.5745 14.3319 34.6145 14.392C34.5745 14.5721 34.4746 14.6922 34.2548 14.7723C34.2148 14.5321 34.3347 14.372 34.4546 14.2118Z" fill="#5F5E5D"/>
        <path d="M17.1091 39.553C17.4688 40.4537 17.7685 41.1743 18.0683 41.8749C18.0883 41.9349 18.1082 42.015 18.1282 42.1151C17.4488 42.1151 16.7893 42.1151 16.05 42.1151C16.3897 41.3144 16.7094 40.5138 17.1091 39.553Z" fill="#776763"/>
        <path d="M35.6536 19.6364C35.5737 19.6764 35.4738 19.7364 35.3938 19.7765C35.4338 19.256 35.2739 18.6355 36.0733 18.5555C36.2132 18.5354 36.393 18.5354 36.413 18.7356C36.433 18.8957 36.2931 18.9558 36.1732 18.9558C35.7336 18.9958 35.6736 19.2961 35.6536 19.6364Z" fill="#EBEAE8"/>
        <path d="M35.5537 16.0334C35.7935 16.0334 36.0333 16.1134 35.9933 16.2736C35.8934 16.6339 35.4338 16.5738 35.194 16.814C35.1141 16.8941 34.9542 16.754 34.9542 16.6138C34.9942 16.2535 35.254 16.0934 35.5537 16.0334Z" fill="#EEEEEC"/>
        <path d="M35.9534 19.4762C35.9334 19.6564 35.9134 19.8365 35.9134 20.0167C35.7735 19.9967 35.7535 19.8766 35.7136 19.7565C35.8135 19.6764 35.7935 19.4962 35.9534 19.4762Z" fill="#605F5D"/>
        <path d="M33.7152 14.0717C33.5554 14.0317 33.4155 13.8916 33.2356 13.9716C32.8959 13.7114 33.1157 13.5513 33.3156 13.3711C33.3555 13.3711 33.3955 13.3511 33.4155 13.3511C33.9151 13.4312 33.6953 13.7915 33.7152 14.0717Z" fill="#D1CFCE"/>
        <path d="M32.9759 13.6113C32.3364 13.4712 33.0958 13.3111 32.9759 13.151C33.0758 13.1109 33.1757 13.0509 33.2756 13.0108C33.4355 12.9508 33.5754 12.8707 33.5754 13.151C33.4954 13.191 33.4155 13.211 33.4355 13.3311V13.3111C33.2756 13.4312 33.1557 13.5513 32.9759 13.6113Z" fill="#E9E7E5"/>
        <path d="M33.5754 13.1705C33.5154 13.0306 33.3755 13.0506 33.2756 13.0306C33.4954 12.8308 33.7352 12.8308 34.015 12.9507C33.9151 13.1505 33.7352 13.1505 33.5754 13.1705Z" fill="#C3BFBC"/>
        <path d="M37.1324 25.181C36.9925 25.3411 36.8526 25.4812 36.7127 25.6414C36.6728 25.6013 36.6328 25.5413 36.5729 25.5012C36.5129 25.4212 36.8526 25.221 36.5129 25.221C36.3131 25.221 36.1332 25.3211 35.9334 25.3411C35.134 25.3811 34.9142 25.0409 35.154 24.2402C35.3539 24.9208 35.7136 25.181 36.1932 24.9808C36.4929 24.8407 36.6528 24.6005 36.6927 24.2802C36.7527 23.9199 36.5129 23.7598 36.2331 23.5997C35.6736 23.2794 35.6736 23.2794 35.5737 22.759C36.373 23.3795 37.7719 23.6397 37.1324 25.181Z" fill="#282421"/>
        <path d="M33.4555 19.7765C33.5354 19.7765 33.6153 19.7765 33.6953 19.7765C33.7752 20.8374 34.7744 20.7773 35.5137 21.1176C35.214 21.3378 35.0341 21.1176 34.8343 21.1176C33.5154 21.0776 33.5154 21.0575 33.4555 19.7765Z" fill="#332F2C"/>
        <path d="M35.0541 22.5188C34.7544 22.5388 34.5945 21.8582 34.3147 22.4787C34.2948 22.5388 33.955 22.3987 33.8351 22.2185C33.6953 21.9983 33.8551 21.8382 34.015 21.7181C34.2548 21.5179 34.5346 21.5379 34.7943 21.658C35.1141 21.8382 35.1141 22.1585 35.0541 22.5188Z" fill="#2D2926"/>
        <path d="M33.1757 23.9199C33.5754 23.7798 33.995 23.7598 34.2548 23.3394C34.3947 23.1193 34.6744 23.2394 34.7943 23.4796C34.9342 23.6997 34.7544 23.7598 34.5945 23.9199C34.1149 24.4203 33.6553 23.8399 33.1757 23.9199Z" fill="#312D2B"/>
        <path d="M37.0125 21.4379C37.1324 21.578 37.2323 21.7181 37.3522 21.8582C37.4321 22.0584 37.4521 22.1985 37.1724 22.1985C36.7327 21.8182 36.2531 21.8582 35.7735 22.1785C35.9734 21.7581 36.3331 21.5379 36.7327 21.4178C36.8127 21.3978 36.9126 21.3778 37.0125 21.4379Z" fill="#292726"/>
        <path d="M33.1357 21.4379C32.836 21.3778 32.5762 21.3378 32.2165 21.2777C32.6162 20.9575 33.0158 20.6972 32.776 19.9766C33.1157 20.4771 33.1157 20.4771 33.1357 21.4379Z" fill="#363330"/>
        <path d="M33.7552 19.6364C33.5754 19.3361 33.5554 19.0559 33.8551 18.7356C33.9151 19.0158 33.975 19.236 34.015 19.4762C33.9351 19.5363 33.8551 19.5963 33.7552 19.6364Z" fill="#D0CDCB"/>
        <path d="M29.1391 20.8171C29.1391 20.7572 29.1191 20.7172 29.0791 20.6972C29.4188 20.6772 29.7386 20.7172 30.0783 20.6772C29.7985 20.937 29.4588 20.8371 29.1391 20.8171Z" fill="#373635"/>
        <path d="M37.1524 22.1985C37.3122 22.1384 37.3122 21.9983 37.3322 21.8582C37.572 22.1585 37.4921 22.4387 37.2323 22.7389C37.2123 22.5388 37.1724 22.3786 37.1524 22.1985Z" fill="#454342"/>
        <path d="M37.0125 21.4379C36.9126 21.4579 36.8127 21.598 36.7327 21.4178C36.7527 21.2777 36.6928 21.0575 36.8127 21.0575C36.9725 21.0575 37.0125 21.2777 37.0125 21.4379Z" fill="#34302D"/>
        <path d="M27.6003 12.1301C27.9001 11.5496 28.3397 11.0492 28.7594 10.5688C29.0991 10.2686 29.3189 10.3486 29.4388 10.769C29.5587 11.2294 29.5187 11.7498 29.8185 12.1701C29.8984 12.2902 29.8584 12.5104 29.6386 12.4704C28.9792 12.3303 29.3788 12.7907 29.3189 12.9908C29.3389 13.171 29.2989 13.3111 29.179 13.4312C29.159 13.4512 29.1191 13.4712 29.0991 13.4912C28.6994 13.2911 28.2198 13.3511 27.8801 13.0509C27.7202 12.9708 27.6203 12.8107 27.5604 12.6305C27.5004 12.4704 27.4604 12.2902 27.6003 12.1301Z" fill="#F9F9F9"/>
        <path d="M27.6003 12.1301C27.6403 12.2902 27.7002 12.4504 27.7402 12.6105C27.6203 12.8107 27.7002 12.9908 27.7602 13.191C27.9201 13.5113 28.2997 13.4912 28.5395 13.6714C28.7194 13.8115 28.7594 14.0317 28.5995 14.1718C28.3197 14.392 28.3397 14.0117 28.1998 13.9316C28.1199 13.9116 28.04 13.8115 27.96 13.8916C27.94 13.9116 28.02 14.0117 28.04 14.0717C28.1998 14.3319 28.3197 14.6522 27.9001 14.6722C27.6003 14.6922 27.1007 14.7123 27.0208 14.2519C26.9209 13.6714 26.9209 13.0909 27.2806 12.5705C27.3006 12.3503 27.4005 12.2102 27.6003 12.1301Z" fill="#EFEEED"/>
        <path d="M29.7985 13.5313C29.9184 13.8515 30.0583 14.1918 29.8385 14.5321C29.9584 14.7323 29.9184 14.9324 29.8385 15.1526C29.4388 15.593 29.9584 15.9333 29.9784 16.3336C29.8984 16.4737 29.9784 16.7339 29.6786 16.6939C29.159 15.8132 28.9792 14.8724 29.219 13.8515C29.239 13.7515 29.1391 13.6314 29.0991 13.5113H29.0791C29.3389 13.251 29.5787 13.3912 29.7985 13.5313Z" fill="#F3F2F2"/>
        <path d="M29.6786 16.6739C29.8784 16.6539 29.8585 16.4137 29.9784 16.3136C30.0183 16.3736 30.0783 16.4337 30.1182 16.4937C30.2581 16.9942 30.8177 17.1343 31.0375 17.5546V17.5346C30.4979 17.6547 30.0383 17.4345 29.5587 17.2544C29.4188 17.2744 29.4988 17.4946 29.3589 17.5146C29.179 17.2944 29.3389 17.0142 29.259 16.774C29.3988 16.7339 29.5387 16.6939 29.6786 16.6739Z" fill="#322D2A"/>
        <path d="M26.6811 15.5129C26.6012 14.9525 26.4813 14.5121 25.9017 14.3119C26.3813 14.0317 26.6012 14.2719 26.781 14.5321C26.9609 14.7923 27.1807 15.1126 26.6811 15.5129Z" fill="#E9E7E5"/>
        <path d="M27.2806 16.3736C27.2207 16.1935 27.1207 15.9933 27.4605 15.9933C27.7003 15.9933 27.9201 16.1935 27.8401 16.3536C27.7002 16.5938 27.8601 17.0542 27.5204 17.0542C27.1807 17.0542 27.2806 16.6539 27.2806 16.3736Z" fill="#F0F0EE"/>
        <path d="M28.04 14.071C27.8601 13.9911 27.6203 14.0111 27.4804 13.7313C27.8002 13.5914 28.02 13.6314 28.1798 13.9311C28.1399 13.9911 28.0999 14.0311 28.04 14.071Z" fill="#5C5B59"/>
        <path d="M24.6028 14.2314C24.5229 14.1514 24.463 14.0715 24.383 13.9916C24.5429 13.8517 24.7427 14.0315 24.9026 13.9516C24.8027 14.0515 24.7027 14.1314 24.6028 14.2314Z" fill="#63615E"/>
        <path d="M27.7402 13.191C27.5404 13.0108 27.4205 12.8107 27.7202 12.6105C27.7602 12.7506 27.8201 12.8907 27.8601 13.0509C27.8201 13.0909 27.7802 13.1309 27.7402 13.191Z" fill="#3D3836"/>
        <path d="M29.9983 18.1351C30.2381 18.1351 30.4779 18.1351 30.6978 18.1351C30.6978 18.1751 30.7177 18.235 30.7177 18.275C30.4779 18.315 30.2381 18.3549 29.9983 18.4149C29.9983 18.3349 29.9983 18.235 29.9983 18.1351Z" fill="#2F2C2A"/>
        <path d="M24.9226 15.7331C25.0025 15.7331 25.0824 15.7331 25.1624 15.7331C25.1624 15.9733 25.1624 16.1935 25.1624 16.4337C25.0624 16.2135 24.8626 16.0133 24.9226 15.7331Z" fill="#52504E"/>
        <path d="M29.3389 17.5141C29.4788 17.4941 29.239 17.1544 29.5387 17.2543C29.5387 17.3942 29.5187 17.5341 29.5187 17.674C29.3988 17.694 29.3589 17.634 29.3389 17.5141Z" fill="#201B17"/>
        <path d="M31.9567 18.3351C31.7169 18.435 31.4971 18.5349 31.2573 18.6548C31.3572 18.2351 31.577 18.0753 31.9567 18.3351Z" fill="#373432"/>
        <path d="M31.0375 17.5546C31.0375 17.4345 30.9575 17.3745 30.8576 17.3745C30.1782 17.4345 30.0183 17.0742 30.1182 16.4937C30.2581 16.3937 30.1782 16.1134 30.438 16.0934C30.5978 16.1935 30.7977 16.2135 30.9775 16.2135C31.2773 16.2335 31.4571 16.4337 31.637 16.6539C31.577 17.0542 31.6769 17.5546 31.0375 17.5546Z" fill="#EDEDEC"/>
        <path d="M29.8385 15.1326C29.6586 14.9324 29.6986 14.7123 29.8385 14.5121C30.1982 14.352 30.1982 14.352 30.4779 13.8115C30.7777 14.5521 30.3181 14.8524 29.8385 15.1326Z" fill="#D4D2D0"/>
        <path d="M31.637 15.593C31.5371 15.7331 31.4371 15.8532 31.3372 15.9933C31.1374 16.1735 31.0175 16.0334 30.8776 15.8932C30.9775 15.573 30.8976 15.2127 31.1574 14.8724C31.2373 15.1927 31.4172 15.4128 31.637 15.593Z" fill="#241F1C"/>
        <path d="M30.8776 15.8732C31.0375 15.9133 31.1774 15.9533 31.3372 15.9733C31.3772 16.0334 31.4371 16.0934 31.4771 16.1735C31.3372 16.4137 31.0575 16.1535 30.8776 16.3336C30.5978 16.4737 30.438 16.4137 30.418 16.0734C30.5779 16.0133 30.7377 15.9533 30.8776 15.8732Z" fill="#CAC8C6"/>
        <path d="M29.7985 13.5313C29.5587 13.5113 29.3189 13.5113 29.0791 13.4912C29.0591 13.2711 29.199 13.1309 29.3189 12.9908C29.4188 13.231 29.7585 13.251 29.7985 13.5313Z" fill="#6A6969"/>
        <path d="M32.9759 13.6113C33.0958 13.4512 33.2157 13.3111 33.4355 13.3111C33.4355 13.5513 32.796 13.5913 33.2356 13.9716C33.1757 13.9917 33.1157 14.0117 33.0358 14.0317C33.0158 13.8916 32.9958 13.7515 32.9759 13.6113Z" fill="#2A2827"/>
        <path d="M30.8776 16.3336C31.0175 16.0734 31.2973 16.3136 31.4771 16.1735C31.5371 16.3336 31.6969 16.4537 31.617 16.6539C31.3772 16.5538 31.1374 16.4537 30.8776 16.3336Z" fill="#696867"/>
    </g>
    <defs>
        <filter id="filter0_d" x="0" y="0" width="56" height="56" filterUnits="userSpaceOnUse" color-interpolation-filters="sRGB">
            <feFlood flood-opacity="0" result="BackgroundImageFix"/>
            <feColorMatrix in="SourceAlpha" type="matrix" values="0 0 0 0 0 0 0 0 0 0 0 0 0 0 0 0 0 0 127 0"/>
            <feOffset dy="4"/>
            <feGaussianBlur stdDeviation="2"/>
            <feColorMatrix type="matrix" values="0 0 0 0 0 0 0 0 0 0 0 0 0 0 0 0 0 0 0.25 0"/>
            <feBlend mode="normal" in2="BackgroundImageFix" result="effect1_dropShadow"/>
            <feBlend mode="normal" in="SourceGraphic" in2="effect1_dropShadow" result="shape"/>
        </filter>
    </defs>
</svg>
